<svg xmlns="http://www.w3.org/2000/svg" xmlns:xlink="http://www.w3.org/1999/xlink" width="1920" zoomAndPan="magnify" viewBox="0 0 1440 809.999993" height="1080" preserveAspectRatio="xMidYMid meet" version="1.0"><defs><clipPath id="id1"><path d="M 301 345 L 1209.535156 345 L 1209.535156 483 L 301 483 Z M 301 345 " clip-rule="nonzero"/></clipPath><clipPath id="id2"><path d="M 399 431 L 968 431 L 968 614.5 L 399 614.5 Z M 399 431 " clip-rule="nonzero"/></clipPath><clipPath id="id3"><path d="M 256 195.25 L 422 195.25 L 422 347 L 256 347 Z M 256 195.25 " clip-rule="nonzero"/></clipPath></defs><path fill="#d5d6db" d="M 770.03125 504.746094 C 759.527344 500.351562 748.226562 498.167969 736.828125 498.316406 C 707.367188 498.316406 683.464844 511.5625 683.464844 527.898438 C 683.464844 544.226562 707.367188 557.464844 736.828125 557.464844 C 748.226562 557.613281 759.515625 555.425781 770.03125 551.042969 C 774.992188 548.847656 778.1875 543.929688 778.1875 538.503906 L 778.1875 517.285156 C 778.195312 511.859375 774.992188 506.941406 770.03125 504.746094 Z M 770.03125 504.746094 " fill-opacity="1" fill-rule="nonzero"/><path fill="#d5d6db" d="M 834.144531 278.003906 C 826.527344 274.824219 818.332031 273.230469 810.074219 273.339844 C 788.710938 273.339844 771.375 282.941406 771.375 294.777344 C 771.375 306.613281 788.710938 316.210938 810.074219 316.210938 C 818.332031 316.320312 826.527344 314.730469 834.144531 311.550781 C 837.738281 309.960938 840.054688 306.394531 840.054688 302.457031 L 840.054688 287.09375 C 840.066406 283.160156 837.746094 279.59375 834.144531 278.003906 Z M 834.144531 278.003906 " fill-opacity="1" fill-rule="nonzero"/><path fill="#029bc5" d="M 741.117188 223.335938 C 739.714844 222.054688 737.882812 221.347656 735.984375 221.347656 L 685.921875 221.347656 C 681.734375 221.339844 678.332031 224.71875 678.332031 228.902344 C 678.324219 229.867188 678.511719 230.820312 678.859375 231.703125 L 732.710938 368.203125 L 899.65625 368.203125 Z M 741.117188 223.335938 " fill-opacity="1" fill-rule="nonzero"/><g clip-path="url(#id1)"><path fill="#e1e6e9" d="M 1141.476562 482.546875 L 669.339844 482.546875 L 417.789062 427.988281 L 301.691406 376.246094 L 301.691406 345.46875 L 1084.582031 353.496094 C 1107.9375 353.6875 1130.835938 360.027344 1150.957031 371.890625 C 1159.738281 377.128906 1167.828125 383.457031 1175.039062 390.714844 C 1181.464844 397.082031 1186.945312 404.347656 1191.308594 412.265625 C 1196.15625 421.171875 1208.945312 431.097656 1209.183594 441.980469 C 1209.203125 441.980469 1200.890625 485.109375 1141.476562 482.546875 Z M 1141.476562 482.546875 " fill-opacity="1" fill-rule="nonzero"/></g><g clip-path="url(#id2)"><path fill="#029bc5" d="M 686.609375 437.9375 L 403 599.660156 C 399.25 602.09375 398.183594 607.113281 400.621094 610.867188 C 402.125 613.164062 404.679688 614.554688 407.425781 614.554688 L 458.652344 614.554688 C 468.496094 614.542969 478.246094 612.527344 487.296875 608.621094 L 967.640625 431.753906 Z M 686.609375 437.9375 " fill-opacity="1" fill-rule="nonzero"/></g><g clip-path="url(#id3)"><path fill="#029bc5" d="M 315.828125 199.40625 C 313.9375 196.761719 310.894531 195.195312 307.640625 195.195312 L 266.851562 195.195312 C 261.300781 195.195312 256.792969 199.695312 256.785156 205.238281 C 256.785156 206.304688 256.953125 207.347656 257.28125 208.351562 L 301.691406 345.46875 L 421.210938 346.699219 Z M 315.828125 199.40625 " fill-opacity="1" fill-rule="nonzero"/></g><path fill="#029bc5" d="M 317.804688 368.234375 L 232.8125 409.386719 C 231.578125 409.972656 231.042969 411.441406 231.628906 412.675781 C 232.046875 413.570312 232.953125 414.125 233.9375 414.097656 L 273.625 414.097656 C 273.933594 414.097656 274.238281 414.035156 274.527344 413.925781 L 391.34375 368.265625 Z M 317.804688 368.234375 " fill-opacity="1" fill-rule="nonzero"/><path fill="#029bc5" d="M 1175.058594 390.714844 C 1167.847656 383.457031 1159.757812 377.128906 1150.976562 371.882812 C 1136.207031 378.976562 1123.554688 389.808594 1114.285156 403.304688 C 1112.640625 406.175781 1113.648438 409.832031 1116.523438 411.472656 C 1117.417969 411.988281 1118.429688 412.257812 1119.457031 412.265625 L 1191.332031 412.265625 C 1186.964844 404.335938 1181.484375 397.082031 1175.058594 390.714844 Z M 1175.058594 390.714844 " fill-opacity="1" fill-rule="nonzero"/><path fill="#d5d6db" d="M 1020.160156 459.339844 L 1064.53125 459.339844 L 1064.53125 378.210938 L 1020.160156 378.210938 Z M 1020.160156 459.339844 " fill-opacity="1" fill-rule="nonzero"/><path fill="#3a556a" d="M 982.191406 388.121094 C 976.792969 388.121094 972.40625 392.5 972.40625 397.90625 L 972.40625 406.652344 C 972.582031 412.058594 977.121094 416.28125 982.519531 416.101562 C 987.664062 415.925781 991.800781 411.800781 991.96875 406.652344 L 991.96875 397.90625 C 991.96875 392.5 987.59375 388.128906 982.191406 388.121094 Z M 982.191406 388.121094 " fill-opacity="1" fill-rule="nonzero"/><path fill="#3a556a" d="M 938.078125 388.121094 C 932.667969 388.121094 928.292969 392.5 928.292969 397.90625 L 928.292969 406.652344 C 928.46875 412.058594 932.996094 416.28125 938.40625 416.101562 C 943.550781 415.925781 947.675781 411.800781 947.855469 406.652344 L 947.855469 397.90625 C 947.855469 392.5 943.480469 388.128906 938.078125 388.121094 Z M 938.078125 388.121094 " fill-opacity="1" fill-rule="nonzero"/><path fill="#3a556a" d="M 893.945312 388.121094 C 888.542969 388.128906 884.167969 392.5 884.167969 397.90625 L 884.167969 406.652344 C 884.347656 412.058594 888.882812 416.28125 894.285156 416.101562 C 899.4375 415.925781 903.5625 411.800781 903.742188 406.652344 L 903.742188 397.90625 C 903.742188 392.5 899.355469 388.121094 893.945312 388.121094 Z M 893.945312 388.121094 " fill-opacity="1" fill-rule="nonzero"/><path fill="#3a556a" d="M 849.832031 388.121094 C 844.429688 388.128906 840.054688 392.5 840.054688 397.90625 L 840.054688 406.652344 C 840.234375 412.058594 844.757812 416.28125 850.171875 416.101562 C 855.3125 415.925781 859.449219 411.800781 859.621094 406.652344 L 859.621094 397.90625 C 859.621094 392.5 855.234375 388.121094 849.832031 388.121094 Z M 849.832031 388.121094 " fill-opacity="1" fill-rule="nonzero"/><path fill="#3a556a" d="M 805.707031 388.121094 C 800.308594 388.128906 795.929688 392.5 795.929688 397.90625 L 795.929688 406.652344 C 795.929688 412.050781 800.308594 416.429688 805.707031 416.429688 C 811.109375 416.429688 815.496094 412.050781 815.496094 406.652344 L 815.496094 397.90625 C 815.496094 392.511719 811.128906 388.128906 805.730469 388.121094 C 805.71875 388.121094 805.71875 388.121094 805.707031 388.121094 Z M 805.707031 388.121094 " fill-opacity="1" fill-rule="nonzero"/><path fill="#3a556a" d="M 761.59375 388.121094 C 756.195312 388.128906 751.816406 392.5 751.816406 397.90625 L 751.816406 406.652344 C 751.816406 412.050781 756.195312 416.429688 761.59375 416.429688 C 766.996094 416.429688 771.375 412.050781 771.375 406.652344 L 771.375 397.90625 C 771.382812 392.511719 767.007812 388.128906 761.605469 388.121094 Z M 761.59375 388.121094 " fill-opacity="1" fill-rule="nonzero"/><path fill="#3a556a" d="M 717.480469 388.121094 C 712.070312 388.128906 707.695312 392.5 707.695312 397.90625 L 707.695312 406.652344 C 707.703125 412.050781 712.089844 416.421875 717.492188 416.410156 C 722.882812 416.410156 727.25 412.039062 727.261719 406.652344 L 727.261719 397.90625 C 727.261719 392.5 722.882812 388.128906 717.480469 388.121094 Z M 717.480469 388.121094 " fill-opacity="1" fill-rule="nonzero"/><path fill="#3a556a" d="M 673.359375 388.121094 C 667.957031 388.128906 663.582031 392.5 663.582031 397.90625 L 663.582031 406.652344 C 663.589844 412.050781 667.976562 416.421875 673.367188 416.410156 C 678.761719 416.410156 683.136719 412.039062 683.136719 406.652344 L 683.136719 397.90625 C 683.136719 392.5 678.761719 388.128906 673.359375 388.121094 Z M 673.359375 388.121094 " fill-opacity="1" fill-rule="nonzero"/><path fill="#3a556a" d="M 629.246094 388.121094 C 623.84375 388.128906 619.46875 392.5 619.46875 397.90625 L 619.46875 406.652344 C 619.46875 412.050781 623.855469 416.421875 629.253906 416.410156 C 634.648438 416.410156 639.011719 412.039062 639.023438 406.652344 L 639.023438 397.90625 C 639.023438 392.5 634.648438 388.128906 629.246094 388.121094 Z M 629.246094 388.121094 " fill-opacity="1" fill-rule="nonzero"/><path fill="#3a556a" d="M 585.113281 388.121094 C 579.710938 388.121094 575.335938 392.492188 575.335938 397.886719 L 575.335938 406.652344 C 575.34375 412.050781 579.730469 416.421875 585.121094 416.410156 C 590.511719 416.410156 594.890625 412.039062 594.890625 406.652344 L 594.890625 397.90625 C 594.890625 392.5 590.523438 388.128906 585.113281 388.121094 Z M 585.113281 388.121094 " fill-opacity="1" fill-rule="nonzero"/><path fill="#3a556a" d="M 541.007812 388.121094 C 535.609375 388.121094 531.230469 392.492188 531.230469 397.886719 L 531.230469 406.652344 C 531.242188 412.050781 535.628906 416.421875 541.019531 416.410156 C 546.410156 416.410156 550.777344 412.039062 550.785156 406.652344 L 550.785156 397.90625 C 550.785156 392.5 546.410156 388.128906 541.007812 388.121094 Z M 541.007812 388.121094 " fill-opacity="1" fill-rule="nonzero"/></svg>