<svg xmlns="http://www.w3.org/2000/svg" xmlns:xlink="http://www.w3.org/1999/xlink" width="1080" zoomAndPan="magnify" viewBox="0 0 810 809.999993" height="1080" preserveAspectRatio="xMidYMid meet" version="1.0"><defs><g/><clipPath id="63a9d795ad"><path d="M 38 351 L 743 351 L 743 661 L 38 661 Z M 38 351 " clip-rule="nonzero"/></clipPath><clipPath id="f736ca519c"><path d="M 3.859375 464.90625 L 710.425781 276.527344 L 785.972656 559.878906 L 79.402344 748.261719 Z M 3.859375 464.90625 " clip-rule="nonzero"/></clipPath><clipPath id="89530fe52b"><path d="M 3.859375 464.90625 L 710.425781 276.527344 L 785.972656 559.878906 L 79.402344 748.261719 Z M 3.859375 464.90625 " clip-rule="nonzero"/></clipPath><clipPath id="5dae5ac8eb"><path d="M 49 237 L 754 237 L 754 546 L 49 546 Z M 49 237 " clip-rule="nonzero"/></clipPath><clipPath id="993e4ad98e"><path d="M 14.0625 350.554688 L 720.632812 162.175781 L 796.175781 445.527344 L 89.605469 633.90625 Z M 14.0625 350.554688 " clip-rule="nonzero"/></clipPath><clipPath id="e66399a705"><path d="M 14.0625 350.554688 L 720.632812 162.175781 L 796.175781 445.527344 L 89.605469 633.90625 Z M 14.0625 350.554688 " clip-rule="nonzero"/></clipPath></defs><g clip-path="url(#63a9d795ad)"><g clip-path="url(#f736ca519c)"><g clip-path="url(#89530fe52b)"><path fill="#1f628e" d="M 700.53125 371.820312 C 678.375 362 654.011719 356.863281 629.960938 354.460938 C 605.242188 351.988281 580.539062 351.296875 555.707031 352.152344 C 531.078125 352.996094 506.582031 355.390625 482.140625 358.492188 C 457.648438 361.601562 433.296875 366.015625 409.152344 371.148438 C 385.117188 376.253906 361.191406 382.109375 337.613281 389.039062 C 313.835938 396.027344 290.3125 403.730469 267.050781 412.28125 C 243.933594 420.78125 221.125 430.3125 198.882812 440.898438 C 183.347656 448.285156 168.183594 456.261719 153.160156 464.628906 C 152.476562 464.296875 151.796875 463.953125 151.136719 463.574219 C 146.507812 460.894531 142.601562 457.425781 139.578125 453.261719 C 139.28125 452.851562 138.996094 452.433594 138.722656 452.015625 C 136.902344 449.066406 135.210938 446.089844 133.652344 442.984375 C 131.792969 439.269531 130.625 436.324219 129.253906 432.59375 C 129.167969 432.042969 128.6875 431.90625 128.277344 432.042969 C 127.835938 432.117188 127.460938 432.480469 127.660156 433.019531 C 128.265625 436.941406 128.683594 440.09375 128.980469 444.230469 C 129.25 447.988281 129.15625 451.71875 129.015625 455.480469 C 129.015625 455.535156 129.019531 455.589844 129.027344 455.640625 C 129.011719 455.789062 128.996094 455.9375 128.976562 456.089844 C 128.742188 457.886719 128.636719 458.519531 128.292969 460.289062 C 128.058594 461.484375 127.660156 462.636719 127.316406 463.800781 C 127.128906 464.429688 126.835938 465.046875 126.597656 465.65625 C 126.269531 466.511719 126.375 466.261719 125.976562 467.101562 C 123.578125 472.171875 120.839844 475.894531 116.585938 479.574219 C 116.507812 479.640625 115.882812 480.160156 116.214844 479.90625 C 115.980469 480.085938 115.746094 480.261719 115.511719 480.441406 C 114.964844 480.855469 114.417969 481.269531 113.875 481.683594 C 110.652344 483.621094 107.433594 485.535156 104.070312 487.214844 C 100.347656 489.078125 97.402344 490.25 93.664062 491.621094 C 93.59375 491.632812 93.53125 491.652344 93.476562 491.671875 C 92.632812 491.898438 91.789062 492.121094 90.945312 492.347656 C 89.917969 492.621094 90.339844 494.214844 91.367188 493.9375 C 92.273438 493.699219 93.179688 493.457031 94.085938 493.214844 C 98.015625 492.605469 101.171875 492.183594 105.316406 491.882812 C 107.136719 491.75 108.949219 491.703125 110.765625 491.707031 C 92.558594 504.855469 74.511719 519.507812 60.65625 537.265625 C 47.035156 554.714844 33.835938 577.628906 40.824219 600.507812 C 47.765625 623.238281 70.0625 636.300781 91.042969 644.179688 C 113.394531 652.574219 137.355469 656.414062 161.054688 658.5 C 185.113281 660.621094 209.230469 660.632812 233.347656 659.65625 C 257.292969 658.6875 281.253906 656.226562 304.972656 652.890625 C 329 649.515625 352.816406 645.171875 376.542969 640.113281 C 400.875 634.925781 424.851562 628.453125 448.796875 621.742188 C 471.851562 615.28125 494.78125 607.535156 517.144531 598.976562 C 539.890625 590.273438 562.191406 581.148438 584.253906 570.59375 C 594.371094 565.757812 604.363281 560.722656 614.273438 555.484375 C 615.160156 555.507812 616.050781 555.539062 616.941406 555.570312 C 617.613281 555.640625 618.289062 555.714844 618.964844 555.785156 C 619.894531 555.886719 619.613281 555.84375 620.527344 556.042969 C 621.925781 556.347656 623.292969 556.6875 624.671875 557.0625 C 625.128906 557.1875 625.550781 557.324219 625.992188 557.5 C 626.410156 557.664062 626.832031 557.828125 627.253906 557.992188 C 627.390625 558.046875 628.277344 558.421875 627.929688 558.253906 C 629.0625 558.804688 630.195312 559.339844 631.292969 559.953125 C 632.5625 560.65625 633.6875 561.386719 634.863281 562.238281 C 634.945312 562.296875 635.589844 562.785156 635.269531 562.527344 C 635.5 562.710938 635.726562 562.894531 635.960938 563.082031 C 636.496094 563.507812 637.09375 563.90625 637.582031 564.382812 C 638.46875 565.238281 639.371094 566.070312 640.183594 566.992188 C 641.359375 568.316406 641.722656 568.761719 642.78125 570.191406 C 643.128906 570.660156 643.449219 571.152344 643.761719 571.65625 C 645.484375 574.515625 647.167969 577.390625 648.660156 580.390625 C 649.566406 582.210938 650.398438 584.046875 651.222656 585.914062 C 651.285156 586.058594 651.695312 587.046875 651.542969 586.625 C 651.679688 587.007812 651.824219 587.390625 651.964844 587.773438 C 652.34375 588.796875 652.722656 589.820312 653.101562 590.84375 C 653.109375 590.914062 653.128906 590.972656 653.148438 591.03125 C 653.382812 591.898438 653.613281 592.761719 653.84375 593.628906 C 654.117188 594.65625 655.707031 594.230469 655.433594 593.203125 C 655.1875 592.273438 654.941406 591.347656 654.691406 590.417969 C 654.539062 589.410156 654.382812 588.398438 654.230469 587.390625 C 654.160156 586.929688 654.089844 586.46875 654.019531 586.007812 C 654.019531 586.003906 654.019531 585.996094 654.015625 585.992188 C 653.992188 585.773438 653.964844 585.546875 653.9375 585.328125 C 653.6875 583.257812 653.46875 581.21875 653.34375 579.140625 C 653.121094 575.402344 653.199219 571.695312 653.335938 567.957031 C 653.339844 567.902344 653.335938 567.855469 653.328125 567.808594 C 653.34375 567.65625 653.363281 567.511719 653.382812 567.363281 C 653.628906 565.582031 653.738281 564.941406 654.066406 563.164062 C 654.285156 561.984375 654.699219 560.851562 655.054688 559.703125 C 655.257812 559.058594 655.527344 558.433594 655.757812 557.800781 C 656.082031 556.929688 655.980469 557.175781 656.375 556.332031 C 658.789062 551.234375 661.585938 547.65625 665.769531 543.878906 C 665.851562 543.808594 666.472656 543.289062 666.136719 543.535156 C 666.375 543.363281 666.609375 543.191406 666.847656 543.015625 C 667.394531 542.621094 667.945312 542.222656 668.496094 541.824219 C 671.628906 539.871094 674.753906 537.953125 678.082031 536.355469 C 679.941406 535.460938 681.8125 534.617188 683.699219 533.78125 C 683.84375 533.71875 684.835938 533.300781 684.410156 533.464844 C 684.792969 533.316406 685.175781 533.167969 685.558594 533.019531 C 686.578125 532.625 687.597656 532.230469 688.621094 531.835938 C 689.183594 531.738281 689.316406 531.234375 689.160156 530.816406 C 689.078125 530.390625 688.71875 530.042969 688.195312 530.242188 C 687.1875 530.414062 686.179688 530.582031 685.175781 530.753906 C 684.722656 530.832031 684.265625 530.90625 683.8125 530.984375 C 683.597656 531.007812 683.378906 531.03125 683.160156 531.050781 C 681.121094 531.269531 679.09375 531.46875 677.046875 531.589844 C 673.292969 531.804688 669.550781 531.75 665.789062 531.667969 C 665.109375 531.582031 664.429688 531.492188 663.75 531.40625 C 662.820312 531.285156 663.097656 531.324219 662.1875 531.148438 C 660.765625 530.871094 659.433594 530.535156 658.042969 530.125 C 657.808594 530.054688 657.578125 529.984375 657.359375 529.914062 C 677.195312 516.773438 696.140625 502.125 712.550781 484.835938 C 728.527344 468.007812 743.097656 446.808594 742.964844 422.773438 C 742.824219 398.277344 721.003906 380.894531 700.53125 371.820312 Z M 740.421875 415.40625 C 742.660156 427.292969 740.183594 438.878906 735.269531 449.78125 C 725.4375 471.609375 707.164062 489.59375 688.945312 504.621094 C 678.253906 513.4375 667.007812 521.59375 655.398438 529.238281 C 654.074219 528.71875 652.851562 528.109375 651.445312 527.261719 C 650.230469 526.527344 649.046875 525.773438 647.871094 524.984375 C 647.78125 524.921875 647.140625 524.453125 647.453125 524.714844 C 647.226562 524.527344 647.003906 524.339844 646.78125 524.152344 C 646.257812 523.71875 645.695312 523.308594 645.207031 522.839844 C 644.28125 521.957031 643.332031 521.105469 642.496094 520.136719 C 642.207031 519.804688 641.917969 519.472656 641.628906 519.140625 C 641.5625 519.058594 641.046875 518.4375 641.300781 518.773438 C 640.808594 518.125 640.320312 517.480469 639.828125 516.835938 C 639.78125 516.773438 639.734375 516.707031 639.683594 516.644531 C 639.667969 516.589844 639.640625 516.535156 639.605469 516.484375 C 637.652344 513.355469 635.761719 510.222656 634.109375 506.925781 C 633.160156 505.035156 632.324219 503.136719 631.5 501.1875 C 631.421875 501 631.339844 500.8125 631.261719 500.625 C 631.132812 500.324219 631.222656 500.539062 631.234375 500.558594 C 631.074219 500.140625 630.910156 499.722656 630.75 499.308594 C 630.367188 498.3125 629.984375 497.320312 629.601562 496.328125 C 629.503906 495.765625 629 495.632812 628.582031 495.789062 C 628.15625 495.871094 627.808594 496.230469 628.007812 496.753906 C 628.171875 497.730469 628.339844 498.707031 628.503906 499.683594 C 628.589844 500.171875 628.671875 500.660156 628.753906 501.148438 C 628.757812 501.167969 628.761719 501.183594 628.761719 501.195312 C 628.78125 501.355469 628.796875 501.519531 628.8125 501.679688 C 629.027344 503.695312 629.230469 505.699219 629.347656 507.722656 C 629.542969 511.160156 629.523438 514.585938 629.457031 518.023438 C 629.4375 518.621094 629.40625 519.222656 629.339844 519.820312 C 629.144531 521.628906 629.042969 522.242188 628.65625 524.019531 C 628.398438 525.199219 628.050781 526.355469 627.734375 527.523438 C 627.554688 528.171875 627.226562 528.808594 626.980469 529.433594 C 626.640625 530.300781 626.746094 530.050781 626.355469 530.878906 C 625.238281 533.265625 623.890625 535.441406 622.417969 537.621094 C 622.648438 537.285156 622.160156 537.921875 622.089844 538.003906 C 621.804688 538.34375 621.519531 538.6875 621.234375 539.027344 C 620.886719 539.441406 620.542969 539.835938 620.171875 540.226562 C 619.171875 541.269531 618.183594 542.230469 617.085938 543.175781 C 616.871094 543.363281 616.652344 543.554688 616.433594 543.742188 C 616.746094 543.46875 616.113281 543.988281 616.023438 544.050781 C 615.425781 544.507812 614.824219 544.964844 614.222656 545.421875 C 610.980469 547.375 607.738281 549.3125 604.347656 550.996094 C 602.589844 551.867188 600.8125 552.667969 599.019531 553.460938 C 598.875 553.523438 597.882812 553.933594 598.304688 553.777344 C 597.921875 553.921875 597.539062 554.0625 597.15625 554.203125 C 596.128906 554.582031 595.105469 554.960938 594.078125 555.339844 C 594.011719 555.351562 593.949219 555.367188 593.890625 555.390625 C 593.046875 555.613281 592.203125 555.839844 591.359375 556.0625 C 590.332031 556.339844 590.757812 557.929688 591.785156 557.65625 C 592.691406 557.414062 593.597656 557.171875 594.503906 556.929688 C 595.515625 556.777344 596.527344 556.621094 597.535156 556.46875 C 597.984375 556.398438 598.433594 556.332031 598.878906 556.261719 C 598.886719 556.261719 598.886719 556.261719 598.890625 556.261719 C 599.113281 556.238281 599.335938 556.214844 599.558594 556.1875 C 601.566406 555.976562 603.566406 555.769531 605.578125 555.621094 C 607.332031 555.488281 609.074219 555.441406 610.820312 555.441406 C 590.253906 566.222656 569.265625 576.152344 547.828125 585.085938 C 526.089844 594.140625 503.15625 602.832031 480.320312 610.1875 C 456.742188 617.785156 433.023438 624.746094 409.007812 630.824219 C 385.121094 636.871094 360.980469 642.089844 336.695312 646.265625 C 312.628906 650.402344 288.917969 653.675781 264.613281 655.890625 C 240.640625 658.074219 216.609375 658.851562 192.550781 658.585938 C 168.582031 658.320312 144.394531 656.035156 121.019531 651.011719 C 98.398438 646.152344 74.320312 638.660156 56.996094 622.601562 C 49 615.191406 41.84375 604.71875 40.976562 593.5 C 40.074219 581.808594 42.320312 570.320312 47.824219 559.890625 C 59.027344 538.65625 75.929688 521.558594 94.320312 506.394531 C 100.480469 501.316406 106.949219 496.453125 113.515625 491.746094 C 114.535156 491.769531 115.554688 491.804688 116.578125 491.84375 C 117.25 491.914062 117.925781 491.988281 118.601562 492.058594 C 119.535156 492.15625 119.253906 492.117188 120.167969 492.3125 C 121.550781 492.613281 122.894531 492.957031 124.257812 493.347656 C 124.707031 493.476562 125.125 493.617188 125.558594 493.789062 C 125.980469 493.953125 126.402344 494.117188 126.824219 494.28125 C 126.957031 494.335938 127.847656 494.707031 127.5 494.542969 C 128.648438 495.082031 129.808594 495.59375 130.910156 496.226562 C 132.148438 496.945312 133.308594 497.695312 134.484375 498.515625 C 134.570312 498.578125 135.21875 499.0625 134.90625 498.796875 C 135.128906 498.988281 135.355469 499.171875 135.578125 499.359375 C 136.101562 499.796875 136.652344 500.210938 137.152344 500.671875 C 138.082031 501.535156 139.03125 502.359375 139.851562 503.328125 C 140.980469 504.660156 141.398438 505.175781 142.515625 506.617188 C 142.566406 506.683594 142.613281 506.75 142.664062 506.816406 C 142.679688 506.863281 142.703125 506.910156 142.734375 506.957031 C 144.714844 510.128906 146.648438 513.292969 148.265625 516.667969 C 149.140625 518.5 149.972656 520.34375 150.792969 522.203125 C 150.855469 522.347656 151.273438 523.335938 151.109375 522.914062 C 151.257812 523.296875 151.40625 523.675781 151.554688 524.058594 C 151.949219 525.074219 152.34375 526.097656 152.738281 527.117188 C 152.984375 528.042969 153.234375 528.972656 153.480469 529.898438 C 153.753906 530.925781 155.347656 530.5 155.074219 529.476562 C 154.84375 528.609375 154.613281 527.742188 154.382812 526.878906 C 154.371094 526.820312 154.355469 526.753906 154.332031 526.691406 C 154.160156 525.683594 153.992188 524.679688 153.820312 523.675781 C 153.746094 523.222656 153.667969 522.769531 153.59375 522.316406 C 153.589844 522.292969 153.589844 522.269531 153.585938 522.238281 C 153.558594 521.984375 153.53125 521.734375 153.503906 521.480469 C 153.289062 519.453125 153.101562 517.445312 152.976562 515.414062 C 152.769531 511.96875 152.765625 508.566406 152.875 505.125 C 152.902344 504.628906 152.941406 504.136719 153 503.640625 C 153.203125 501.875 153.300781 501.308594 153.65625 499.574219 C 153.90625 498.371094 154.273438 497.199219 154.617188 496.015625 C 154.785156 495.4375 155.039062 494.867188 155.25 494.300781 C 155.367188 493.984375 155.484375 493.667969 155.601562 493.351562 C 155.683594 493.175781 155.769531 492.996094 155.855469 492.816406 C 158.269531 487.699219 161.066406 484.070312 165.25 480.292969 C 165.46875 480.097656 165.683594 479.902344 165.902344 479.707031 C 165.59375 479.984375 166.207031 479.484375 166.296875 479.417969 C 166.882812 478.984375 167.472656 478.550781 168.0625 478.113281 C 171.238281 476.132812 174.40625 474.195312 177.789062 472.582031 C 179.621094 471.707031 181.46875 470.875 183.332031 470.054688 C 183.476562 469.992188 184.464844 469.570312 184.042969 469.734375 C 184.425781 469.585938 184.808594 469.4375 185.1875 469.292969 C 186.210938 468.898438 187.234375 468.503906 188.253906 468.109375 C 188.816406 468.011719 188.949219 467.511719 188.792969 467.089844 C 188.707031 466.660156 188.351562 466.316406 187.828125 466.515625 C 186.820312 466.683594 185.816406 466.855469 184.808594 467.023438 C 184.351562 467.101562 183.898438 467.179688 183.445312 467.257812 C 183.226562 467.28125 183.011719 467.304688 182.792969 467.328125 C 180.777344 467.539062 178.78125 467.738281 176.761719 467.863281 C 172.953125 468.09375 169.164062 468.039062 165.351562 467.957031 C 164.691406 467.867188 164.023438 467.773438 163.359375 467.683594 C 162.441406 467.554688 162.726562 467.597656 161.816406 467.421875 C 160.398438 467.144531 159.0625 466.808594 157.675781 466.398438 C 157.226562 466.265625 156.792969 466.121094 156.351562 465.957031 C 155.9375 465.804688 155.519531 465.648438 155.101562 465.496094 C 155.085938 465.492188 155.0625 465.480469 155.035156 465.472656 C 176.394531 453.609375 198.136719 442.621094 220.535156 432.832031 C 243.503906 422.792969 266.945312 413.59375 290.855469 405.542969 C 314.101562 397.710938 337.515625 390.574219 361.21875 384.253906 C 384.578125 378.027344 408.222656 372.621094 431.996094 368.222656 C 456.753906 363.644531 481.242188 360.035156 506.1875 357.304688 C 531.128906 354.574219 556.277344 353.269531 581.363281 353.429688 C 605.886719 353.582031 630.269531 355.40625 654.371094 359.71875 C 666.320312 361.855469 678.070312 365.066406 689.503906 369.113281 C 700.875 373.140625 712.285156 378.734375 721.582031 386.503906 C 730.570312 394.003906 738.203125 403.644531 740.421875 415.40625 Z M 740.421875 415.40625 " fill-opacity="1" fill-rule="nonzero"/></g></g></g><g fill="#1f628e" fill-opacity="1"><g transform="translate(342.466877, 424.161599)"><g><path d="M 1.601562 0 L 17.988281 0 C 19.414062 0 19.851562 0.117188 20.316406 0.582031 L 20.519531 0.582031 L 20.519531 -5.675781 L 20.257812 -5.675781 C 19.589844 -4.277344 18.425781 -3.203125 12.953125 -3.203125 L 2.734375 -3.203125 C 2.328125 -4.976562 5.648438 -6.199219 8.0625 -7.480469 C 13.535156 -10.390625 21.335938 -14.289062 21.335938 -21.480469 C 21.335938 -26.691406 16.472656 -29.6875 11.265625 -29.6875 C 6.285156 -29.6875 1.71875 -27.503906 1.71875 -22.238281 C 1.71875 -20.113281 3.203125 -17.695312 5.558594 -17.695312 C 7.132812 -17.695312 7.917969 -18.570312 7.917969 -19.648438 C 7.917969 -22.351562 4.6875 -21.480469 4.6875 -24.59375 C 4.6875 -27.332031 7.945312 -28.785156 11.207031 -28.785156 C 15.425781 -28.785156 18.628906 -26.777344 18.628906 -23.050781 C 18.628906 -15.164062 6.550781 -13.503906 2.5625 -5.761719 C 0.902344 -2.53125 1.601562 0 1.601562 0 Z M 1.601562 0 "/></g></g></g><g fill="#1f628e" fill-opacity="1"><g transform="translate(369.533166, 424.161599)"><g><path d="M 11.730469 0.582031 C 18.132812 0.582031 22.003906 -6.199219 22.003906 -14.554688 C 22.003906 -22.90625 18.132812 -29.6875 11.730469 -29.6875 C 5.328125 -29.6875 1.457031 -22.90625 1.457031 -14.554688 C 1.457031 -6.199219 5.328125 0.582031 11.730469 0.582031 Z M 4.949219 -14.554688 C 4.949219 -22.5 7.828125 -28.816406 11.699219 -28.816406 C 15.601562 -28.816406 18.511719 -22.5 18.511719 -14.554688 C 18.511719 -6.605469 15.601562 -0.292969 11.699219 -0.292969 C 7.828125 -0.292969 4.949219 -6.605469 4.949219 -14.554688 Z M 4.949219 -14.554688 "/></g></g></g><g fill="#1f628e" fill-opacity="1"><g transform="translate(397.268802, 424.161599)"><g><path d="M 1.601562 0 L 17.988281 0 C 19.414062 0 19.851562 0.117188 20.316406 0.582031 L 20.519531 0.582031 L 20.519531 -5.675781 L 20.257812 -5.675781 C 19.589844 -4.277344 18.425781 -3.203125 12.953125 -3.203125 L 2.734375 -3.203125 C 2.328125 -4.976562 5.648438 -6.199219 8.0625 -7.480469 C 13.535156 -10.390625 21.335938 -14.289062 21.335938 -21.480469 C 21.335938 -26.691406 16.472656 -29.6875 11.265625 -29.6875 C 6.285156 -29.6875 1.71875 -27.503906 1.71875 -22.238281 C 1.71875 -20.113281 3.203125 -17.695312 5.558594 -17.695312 C 7.132812 -17.695312 7.917969 -18.570312 7.917969 -19.648438 C 7.917969 -22.351562 4.6875 -21.480469 4.6875 -24.59375 C 4.6875 -27.332031 7.945312 -28.785156 11.207031 -28.785156 C 15.425781 -28.785156 18.628906 -26.777344 18.628906 -23.050781 C 18.628906 -15.164062 6.550781 -13.503906 2.5625 -5.761719 C 0.902344 -2.53125 1.601562 0 1.601562 0 Z M 1.601562 0 "/></g></g></g><g fill="#1f628e" fill-opacity="1"><g transform="translate(424.335092, 424.161599)"><g><path d="M 1.601562 0 L 17.988281 0 C 19.414062 0 19.851562 0.117188 20.316406 0.582031 L 20.519531 0.582031 L 20.519531 -5.675781 L 20.257812 -5.675781 C 19.589844 -4.277344 18.425781 -3.203125 12.953125 -3.203125 L 2.734375 -3.203125 C 2.328125 -4.976562 5.648438 -6.199219 8.0625 -7.480469 C 13.535156 -10.390625 21.335938 -14.289062 21.335938 -21.480469 C 21.335938 -26.691406 16.472656 -29.6875 11.265625 -29.6875 C 6.285156 -29.6875 1.71875 -27.503906 1.71875 -22.238281 C 1.71875 -20.113281 3.203125 -17.695312 5.558594 -17.695312 C 7.132812 -17.695312 7.917969 -18.570312 7.917969 -19.648438 C 7.917969 -22.351562 4.6875 -21.480469 4.6875 -24.59375 C 4.6875 -27.332031 7.945312 -28.785156 11.207031 -28.785156 C 15.425781 -28.785156 18.628906 -26.777344 18.628906 -23.050781 C 18.628906 -15.164062 6.550781 -13.503906 2.5625 -5.761719 C 0.902344 -2.53125 1.601562 0 1.601562 0 Z M 1.601562 0 "/></g></g></g><g fill="#1f628e" fill-opacity="1"><g transform="translate(249.98059, 409.674914)"><g><path d="M 29.285156 -8.195312 L 18 -48.515625 C 22.410156 -48.375 30.355469 -39.667969 33.738281 -31.628906 L 34.488281 -31.835938 L 23.035156 -72.757812 L 22.285156 -72.550781 C 23.566406 -63.921875 21.296875 -52.355469 17.601562 -49.945312 L 9.066406 -80.429688 C 23.808594 -83.015625 35.066406 -78.960938 45.972656 -60.234375 L 46.726562 -60.441406 L 38.003906 -91.605469 L -18.761719 -75.71875 L 2.253906 -0.628906 Z M 29.285156 -8.195312 "/></g></g></g><g fill="#1f628e" fill-opacity="1"><g transform="translate(307.968424, 393.130185)"><g><path d="M -4.855469 -51.363281 L 2.316406 -0.324219 L 28.953125 -4.070312 C 29.523438 -6.195312 29.527344 -8.402344 29.222656 -10.5625 C 27.867188 -20.214844 18.296875 -30.601562 10.941406 -40.90625 L 30.398438 -43.640625 L 35.828125 -5.035156 L 63.625 -8.941406 L 52.769531 -86.15625 L 16.402344 -81.042969 C -3.207031 -78.289062 -6.398438 -62.328125 -4.855469 -51.363281 Z M 2.261719 -58.976562 C 1.535156 -64.152344 2.035156 -75.71875 14.464844 -77.464844 C 19.484375 -78.167969 21.800781 -78.496094 25.429688 -79.003906 L 30.019531 -46.34375 L 9.25 -43.425781 C 5.679688 -48.671875 2.976562 -53.882812 2.261719 -58.976562 Z M 2.261719 -58.976562 "/></g></g></g><g fill="#1f628e" fill-opacity="1"><g transform="translate(370.772045, 384.014262)"><g><path d="M 37.894531 1.527344 C 55.90625 1.511719 70.246094 -9.339844 67.425781 -23.140625 C 66.335938 -19.316406 60.335938 -17.441406 54.488281 -17.511719 C 38.890625 -17.734375 20.632812 -33.390625 20.609375 -61.070312 C 20.601562 -69.414062 23.871094 -74.71875 29.171875 -74.722656 C 43.910156 -74.734375 50.800781 -40.511719 51.667969 -30.21875 L 52.449219 -30.222656 L 66.757812 -71.246094 C 66.757812 -71.246094 57.707031 -79.582031 37.824219 -79.566406 C 15.757812 -79.546875 1.113281 -62.300781 1.136719 -38.988281 C 1.15625 -15.671875 15.828125 1.546875 37.894531 1.527344 Z M 37.894531 1.527344 "/></g></g></g><g fill="#1f628e" fill-opacity="1"><g transform="translate(436.389351, 383.935636)"><g><path d="M 2.316406 0.3125 L 60.347656 8.167969 L 65.574219 -30.464844 L 64.800781 -30.570312 C 59.164062 -9.855469 45.890625 1.019531 30.542969 1.066406 L 35.75 -37.414062 C 39.746094 -35.535156 43.585938 -24.394531 43.507812 -15.671875 L 44.28125 -15.566406 L 49.980469 -57.675781 L 49.207031 -57.78125 C 46.964844 -49.351562 40.296875 -39.632812 35.949219 -38.882812 L 40.195312 -70.253906 C 54.765625 -66.863281 63.09375 -58.65625 65.691406 -37.140625 L 66.464844 -37.035156 L 70.804688 -69.101562 L 12.773438 -76.953125 Z M 2.316406 0.3125 "/></g></g></g><g fill="#1f628e" fill-opacity="1"><g transform="translate(496.175249, 391.68568)"><g><path d="M 7.855469 -24.121094 C 3.136719 -6.980469 16.40625 6.214844 32.289062 10.507812 C 53.28125 16.203125 66.574219 7.570312 70.632812 -7.164062 C 80.089844 -41.515625 25.570312 -52.644531 29.484375 -66.851562 C 29.691406 -67.605469 30.855469 -68.902344 31.832031 -68.632812 C 41.90625 -65.859375 50.515625 -48.363281 64.648438 -44.472656 C 69.683594 -43.085938 78.820312 -45.425781 80.910156 -53.019531 C 81.449219 -54.972656 81.355469 -56.695312 80.910156 -58.597656 L 31.972656 -72.070312 C 27.234375 -73.375 20.710938 -67.003906 19.035156 -60.914062 C 16.632812 -52.195312 19.320312 -44.335938 24.242188 -37.238281 C 16.601562 -36.511719 9.777344 -31.113281 7.855469 -24.121094 Z M 57.1875 3.773438 C 56.320312 6.933594 52.644531 8.832031 48.28125 7.628906 C 32.421875 3.265625 23.441406 -24.925781 25.890625 -35.007812 C 38.074219 -19.035156 60.085938 -6.75 57.1875 3.773438 Z M 57.1875 3.773438 "/></g></g></g><g fill="#1f628e" fill-opacity="1"><g transform="translate(203.442915, 514.124939)"><g><path d="M 19.160156 -90.847656 L 8.308594 -30.472656 C 5.976562 -17.5 9.226562 1.660156 31.785156 5.714844 L 73.617188 13.234375 L 90.039062 -78.101562 L 57.15625 -84.015625 L 42.246094 -1.078125 C 38.273438 0.5625 33.359375 0.621094 27.789062 -0.378906 C 15.003906 -2.675781 13.683594 -15.265625 14.78125 -21.386719 C 18.179688 -40.292969 45.601562 -59.597656 49.050781 -77.742188 C 49.511719 -80.296875 49.605469 -82.921875 49.027344 -85.476562 Z M 19.160156 -90.847656 "/></g></g></g><g fill="#1f628e" fill-opacity="1"><g transform="translate(282.229981, 528.283687)"><g><path d="M 11.03125 -92.1875 L 2.773438 0.246094 L 43.90625 3.921875 C 58.605469 5.234375 81.816406 -7.414062 84.640625 -39.023438 C 87.464844 -70.636719 66.859375 -87.199219 52.164062 -88.511719 Z M 34.121094 -0.214844 L 41.800781 -86.175781 L 45.867188 -85.8125 C 56.679688 -84.847656 54.816406 -63.957031 52.839844 -41.867188 C 50.910156 -20.234375 48.449219 1.066406 38.1875 0.148438 Z M 34.121094 -0.214844 "/></g></g></g><g fill="#1f628e" fill-opacity="1"><g transform="translate(366.616783, 535.641746)"><g><path d="M 2.75 -61.34375 L 2.785156 0 L 34.800781 -0.0195312 C 35.820312 -2.433594 36.191406 -5.03125 36.1875 -7.628906 C 36.183594 -19.230469 26.617188 -33.054688 19.648438 -46.414062 L 43.035156 -46.425781 L 43.058594 -0.0234375 L 76.46875 -0.0429688 L 76.417969 -92.847656 L 32.707031 -92.820312 C 9.136719 -92.808594 2.742188 -74.523438 2.75 -61.34375 Z M 12.394531 -69.144531 C 12.394531 -75.363281 14.890625 -88.914062 29.832031 -88.921875 C 35.863281 -88.925781 38.648438 -88.925781 43.011719 -88.929688 L 43.03125 -49.675781 L 18.070312 -49.660156 C 14.722656 -56.433594 12.398438 -63.019531 12.394531 -69.144531 Z M 12.394531 -69.144531 "/></g></g></g><g fill="#1f628e" fill-opacity="1"><g transform="translate(448.215082, 535.488551)"><g><path d="M -2.648438 -61.347656 L 2.773438 -0.246094 L 34.664062 -3.078125 C 35.46875 -5.570312 35.609375 -8.191406 35.378906 -10.78125 C 34.351562 -22.335938 23.609375 -35.261719 15.496094 -47.960938 L 38.789062 -50.027344 L 42.890625 -3.808594 L 76.171875 -6.761719 L 67.964844 -99.199219 L 24.425781 -95.335938 C 0.945312 -93.25 -3.816406 -74.476562 -2.648438 -61.347656 Z M 6.273438 -69.96875 C 5.722656 -76.160156 7.023438 -89.878906 21.90625 -91.199219 C 27.914062 -91.730469 30.6875 -91.976562 35.03125 -92.363281 L 38.503906 -53.261719 L 13.636719 -51.054688 C 9.710938 -57.507812 6.816406 -63.867188 6.273438 -69.96875 Z M 6.273438 -69.96875 "/></g></g></g><g fill="#1f628e" fill-opacity="1"><g transform="translate(529.493087, 528.175934)"><g><path d="M -13.578125 -91.847656 L 2.742188 -0.488281 L 20.828125 -3.71875 C 21.796875 -4.648438 22.417969 -7.492188 21.421875 -13.066406 C 18.046875 -31.976562 -2.488281 -48.765625 -7.691406 -77.910156 L -8.902344 -84.667969 L 40.835938 -7.292969 L 75.644531 -13.511719 L 59.328125 -104.867188 L 41.238281 -101.636719 C 40.273438 -100.710938 39.648438 -97.863281 40.644531 -92.292969 C 44.023438 -73.382812 64.554688 -56.589844 69.761719 -27.449219 L 70.953125 -20.78125 L 20.957031 -98.015625 Z M -13.578125 -91.847656 "/></g></g></g><g clip-path="url(#5dae5ac8eb)"><g clip-path="url(#993e4ad98e)"><g clip-path="url(#e66399a705)"><path fill="#1f628e" d="M 710.734375 257.46875 C 688.578125 247.648438 664.21875 242.511719 640.167969 240.109375 C 615.445312 237.636719 590.746094 236.945312 565.910156 237.800781 C 541.28125 238.644531 516.785156 241.039062 492.34375 244.140625 C 467.851562 247.25 443.503906 251.664062 419.359375 256.796875 C 395.320312 261.902344 371.394531 267.757812 347.816406 274.6875 C 324.039062 281.675781 300.515625 289.375 277.253906 297.929688 C 254.136719 306.429688 231.328125 315.960938 209.085938 326.542969 C 193.554688 333.933594 178.386719 341.910156 163.363281 350.277344 C 162.679688 349.945312 162 349.601562 161.34375 349.222656 C 156.710938 346.542969 152.808594 343.074219 149.78125 338.910156 C 149.484375 338.5 149.203125 338.082031 148.925781 337.664062 C 147.109375 334.714844 145.414062 331.738281 143.859375 328.632812 C 141.996094 324.917969 140.832031 321.972656 139.457031 318.242188 C 139.371094 317.691406 138.890625 317.554688 138.480469 317.691406 C 138.039062 317.765625 137.667969 318.128906 137.863281 318.667969 C 138.46875 322.589844 138.886719 325.742188 139.183594 329.878906 C 139.457031 333.636719 139.363281 337.367188 139.222656 341.128906 C 139.21875 341.183594 139.222656 341.238281 139.230469 341.289062 C 139.21875 341.4375 139.203125 341.585938 139.179688 341.738281 C 138.949219 343.535156 138.839844 344.167969 138.496094 345.9375 C 138.261719 347.132812 137.867188 348.285156 137.519531 349.449219 C 137.332031 350.078125 137.039062 350.691406 136.804688 351.304688 C 136.472656 352.160156 136.578125 351.910156 136.179688 352.75 C 133.785156 357.820312 131.046875 361.542969 126.789062 365.222656 C 126.710938 365.289062 126.089844 365.808594 126.421875 365.554688 C 126.1875 365.730469 125.949219 365.910156 125.714844 366.089844 C 125.167969 366.503906 124.621094 366.917969 124.078125 367.332031 C 120.859375 369.269531 117.640625 371.183594 114.277344 372.863281 C 110.554688 374.726562 107.605469 375.898438 103.867188 377.269531 C 103.800781 377.28125 103.738281 377.300781 103.683594 377.320312 C 102.835938 377.546875 101.992188 377.769531 101.148438 377.996094 C 100.121094 378.269531 100.546875 379.859375 101.574219 379.585938 C 102.480469 379.34375 103.386719 379.105469 104.292969 378.863281 C 108.222656 378.253906 111.375 377.832031 115.519531 377.53125 C 117.339844 377.398438 119.152344 377.351562 120.96875 377.355469 C 102.761719 390.503906 84.71875 405.15625 70.859375 422.914062 C 57.242188 440.363281 44.042969 463.277344 51.027344 486.15625 C 57.96875 508.886719 80.269531 521.949219 101.25 529.828125 C 123.597656 538.222656 147.5625 542.0625 171.257812 544.148438 C 195.316406 546.265625 219.4375 546.28125 243.554688 545.304688 C 267.496094 544.335938 291.457031 541.875 315.179688 538.539062 C 339.203125 535.164062 363.019531 530.820312 386.746094 525.761719 C 411.078125 520.574219 435.054688 514.101562 459 507.390625 C 482.054688 500.925781 504.984375 493.183594 527.347656 484.625 C 550.097656 475.917969 572.394531 466.796875 594.457031 456.242188 C 604.574219 451.40625 614.566406 446.371094 624.476562 441.132812 C 625.367188 441.15625 626.253906 441.1875 627.144531 441.21875 C 627.820312 441.289062 628.492188 441.363281 629.167969 441.433594 C 630.101562 441.535156 629.820312 441.492188 630.730469 441.691406 C 632.128906 441.996094 633.496094 442.335938 634.875 442.710938 C 635.332031 442.835938 635.753906 442.972656 636.195312 443.148438 C 636.617188 443.3125 637.039062 443.476562 637.457031 443.640625 C 637.59375 443.691406 638.480469 444.070312 638.132812 443.902344 C 639.265625 444.453125 640.402344 444.988281 641.5 445.597656 C 642.765625 446.304688 643.890625 447.035156 645.066406 447.886719 C 645.148438 447.945312 645.792969 448.433594 645.472656 448.175781 C 645.703125 448.359375 645.933594 448.542969 646.164062 448.730469 C 646.699219 449.15625 647.296875 449.554688 647.789062 450.03125 C 648.671875 450.886719 649.574219 451.71875 650.390625 452.640625 C 651.5625 453.964844 651.929688 454.410156 652.984375 455.835938 C 653.332031 456.308594 653.65625 456.800781 653.964844 457.304688 C 655.6875 460.164062 657.371094 463.039062 658.863281 466.035156 C 659.769531 467.859375 660.605469 469.695312 661.429688 471.5625 C 661.492188 471.707031 661.902344 472.695312 661.746094 472.273438 C 661.886719 472.65625 662.027344 473.035156 662.167969 473.421875 C 662.550781 474.445312 662.925781 475.46875 663.304688 476.492188 C 663.316406 476.5625 663.332031 476.621094 663.355469 476.679688 C 663.585938 477.546875 663.816406 478.410156 664.046875 479.273438 C 664.320312 480.300781 665.914062 479.878906 665.640625 478.851562 C 665.390625 477.921875 665.144531 476.996094 664.898438 476.066406 C 664.742188 475.058594 664.589844 474.046875 664.433594 473.035156 C 664.367188 472.578125 664.296875 472.117188 664.222656 471.65625 C 664.222656 471.648438 664.222656 471.644531 664.222656 471.640625 C 664.195312 471.417969 664.171875 471.195312 664.140625 470.976562 C 663.890625 468.90625 663.671875 466.867188 663.546875 464.789062 C 663.324219 461.050781 663.402344 457.34375 663.539062 453.605469 C 663.542969 453.550781 663.539062 453.503906 663.53125 453.457031 C 663.550781 453.304688 663.566406 453.160156 663.585938 453.011719 C 663.835938 451.230469 663.945312 450.589844 664.273438 448.8125 C 664.488281 447.632812 664.902344 446.5 665.261719 445.351562 C 665.460938 444.707031 665.730469 444.082031 665.960938 443.449219 C 666.285156 442.578125 666.183594 442.824219 666.582031 441.980469 C 668.992188 436.882812 671.792969 433.304688 675.976562 429.527344 C 676.054688 429.457031 676.679688 428.9375 676.339844 429.183594 C 676.578125 429.011719 676.8125 428.839844 677.050781 428.664062 C 677.601562 428.269531 678.152344 427.871094 678.703125 427.46875 C 681.832031 425.519531 684.957031 423.601562 688.285156 422.003906 C 690.144531 421.105469 692.015625 420.265625 693.902344 419.429688 C 694.050781 419.367188 695.039062 418.949219 694.617188 419.113281 C 695 418.964844 695.378906 418.816406 695.761719 418.667969 C 696.785156 418.273438 697.804688 417.878906 698.824219 417.484375 C 699.390625 417.386719 699.519531 416.882812 699.363281 416.464844 C 699.28125 416.035156 698.925781 415.6875 698.402344 415.890625 C 697.394531 416.0625 696.386719 416.230469 695.378906 416.402344 C 694.925781 416.480469 694.46875 416.554688 694.019531 416.632812 C 693.800781 416.65625 693.582031 416.679688 693.363281 416.699219 C 691.324219 416.917969 689.300781 417.117188 687.25 417.238281 C 683.496094 417.453125 679.753906 417.398438 675.996094 417.316406 C 675.3125 417.230469 674.632812 417.140625 673.957031 417.054688 C 673.027344 416.933594 673.304688 416.972656 672.390625 416.796875 C 670.972656 416.519531 669.636719 416.183594 668.246094 415.773438 C 668.011719 415.703125 667.785156 415.632812 667.5625 415.5625 C 687.402344 402.421875 706.34375 387.773438 722.757812 370.484375 C 738.730469 353.65625 753.304688 332.457031 753.171875 308.421875 C 753.027344 283.925781 731.210938 266.539062 710.734375 257.46875 Z M 750.625 301.054688 C 752.867188 312.941406 750.390625 324.527344 745.476562 335.429688 C 735.640625 357.257812 717.371094 375.242188 699.148438 390.269531 C 688.457031 399.085938 677.210938 407.238281 665.605469 414.886719 C 664.28125 414.367188 663.058594 413.757812 661.648438 412.910156 C 660.433594 412.175781 659.253906 411.421875 658.074219 410.632812 C 657.988281 410.570312 657.34375 410.101562 657.65625 410.363281 C 657.433594 410.175781 657.207031 409.988281 656.984375 409.800781 C 656.460938 409.367188 655.902344 408.953125 655.410156 408.488281 C 654.484375 407.605469 653.535156 406.753906 652.699219 405.785156 C 652.410156 405.453125 652.121094 405.121094 651.835938 404.789062 C 651.769531 404.707031 651.25 404.085938 651.503906 404.421875 C 651.015625 403.773438 650.523438 403.128906 650.03125 402.484375 C 649.984375 402.421875 649.9375 402.355469 649.890625 402.292969 C 649.871094 402.238281 649.847656 402.183594 649.8125 402.128906 C 647.859375 399.003906 645.964844 395.871094 644.3125 392.570312 C 643.367188 390.679688 642.527344 388.785156 641.703125 386.835938 C 641.625 386.648438 641.546875 386.460938 641.464844 386.273438 C 641.339844 385.972656 641.429688 386.1875 641.4375 386.207031 C 641.277344 385.789062 641.117188 385.371094 640.953125 384.957031 C 640.570312 383.960938 640.1875 382.96875 639.804688 381.976562 C 639.710938 381.414062 639.207031 381.28125 638.785156 381.4375 C 638.359375 381.519531 638.011719 381.878906 638.210938 382.402344 C 638.378906 383.378906 638.546875 384.351562 638.710938 385.332031 C 638.792969 385.820312 638.875 386.308594 638.960938 386.796875 C 638.964844 386.816406 638.964844 386.832031 638.96875 386.84375 C 638.984375 387.003906 639.003906 387.167969 639.015625 387.328125 C 639.230469 389.34375 639.4375 391.347656 639.550781 393.371094 C 639.746094 396.808594 639.730469 400.234375 639.664062 403.671875 C 639.640625 404.269531 639.609375 404.871094 639.546875 405.46875 C 639.347656 407.277344 639.246094 407.890625 638.859375 409.667969 C 638.601562 410.847656 638.257812 412.003906 637.9375 413.171875 C 637.761719 413.820312 637.429688 414.457031 637.183594 415.082031 C 636.84375 415.949219 636.949219 415.699219 636.5625 416.527344 C 635.445312 418.914062 634.097656 421.089844 632.621094 423.269531 C 632.851562 422.933594 632.367188 423.570312 632.296875 423.652344 C 632.011719 423.992188 631.722656 424.335938 631.4375 424.675781 C 631.09375 425.089844 630.75 425.484375 630.378906 425.875 C 629.378906 426.917969 628.386719 427.878906 627.292969 428.824219 C 627.074219 429.011719 626.855469 429.203125 626.636719 429.390625 C 626.953125 429.117188 626.316406 429.632812 626.230469 429.699219 C 625.628906 430.15625 625.027344 430.613281 624.425781 431.066406 C 621.183594 433.023438 617.945312 434.960938 614.550781 436.644531 C 612.792969 437.515625 611.019531 438.316406 609.222656 439.109375 C 609.078125 439.171875 608.085938 439.582031 608.511719 439.425781 C 608.128906 439.566406 607.746094 439.710938 607.359375 439.851562 C 606.332031 440.230469 605.308594 440.609375 604.285156 440.988281 C 604.214844 441 604.152344 441.015625 604.097656 441.039062 C 603.25 441.261719 602.40625 441.488281 601.566406 441.710938 C 600.539062 441.984375 600.960938 443.578125 601.988281 443.304688 C 602.894531 443.0625 603.800781 442.820312 604.707031 442.578125 C 605.71875 442.421875 606.730469 442.269531 607.742188 442.117188 C 608.1875 442.046875 608.636719 441.980469 609.085938 441.910156 C 609.089844 441.910156 609.089844 441.910156 609.09375 441.910156 C 609.316406 441.886719 609.539062 441.863281 609.761719 441.835938 C 611.769531 441.625 613.773438 441.417969 615.785156 441.269531 C 617.535156 441.136719 619.28125 441.089844 621.027344 441.089844 C 600.457031 451.867188 579.472656 461.796875 558.03125 470.734375 C 536.292969 479.789062 513.359375 488.480469 490.527344 495.835938 C 466.945312 503.433594 443.230469 510.394531 419.210938 516.472656 C 395.324219 522.519531 371.1875 527.738281 346.902344 531.914062 C 322.832031 536.050781 299.121094 539.324219 274.816406 541.539062 C 250.84375 543.722656 226.8125 544.5 202.753906 544.234375 C 178.785156 543.96875 154.597656 541.683594 131.222656 536.660156 C 108.601562 531.800781 84.527344 524.308594 67.203125 508.25 C 59.207031 500.839844 52.046875 490.367188 51.179688 479.144531 C 50.277344 467.457031 52.527344 455.96875 58.027344 445.539062 C 69.230469 424.304688 86.132812 407.207031 104.527344 392.042969 C 110.683594 386.964844 117.152344 382.101562 123.722656 377.394531 C 124.738281 377.417969 125.761719 377.453125 126.78125 377.488281 C 127.457031 377.5625 128.132812 377.632812 128.808594 377.707031 C 129.738281 377.804688 129.457031 377.765625 130.371094 377.960938 C 131.757812 378.261719 133.097656 378.601562 134.460938 378.996094 C 134.910156 379.125 135.328125 379.265625 135.765625 379.4375 C 136.1875 379.601562 136.605469 379.765625 137.027344 379.929688 C 137.160156 379.984375 138.054688 380.355469 137.703125 380.191406 C 138.855469 380.730469 140.011719 381.238281 141.113281 381.875 C 142.355469 382.59375 143.511719 383.34375 144.691406 384.164062 C 144.777344 384.222656 145.425781 384.710938 145.109375 384.445312 C 145.335938 384.632812 145.558594 384.820312 145.78125 385.007812 C 146.304688 385.445312 146.859375 385.859375 147.355469 386.320312 C 148.285156 387.183594 149.234375 388.007812 150.054688 388.976562 C 151.1875 390.308594 151.605469 390.824219 152.71875 392.265625 C 152.769531 392.332031 152.816406 392.398438 152.867188 392.460938 C 152.886719 392.511719 152.90625 392.558594 152.9375 392.605469 C 154.917969 395.777344 156.855469 398.941406 158.46875 402.316406 C 159.34375 404.148438 160.175781 405.992188 160.996094 407.851562 C 161.058594 407.996094 161.480469 408.984375 161.3125 408.5625 C 161.464844 408.945312 161.609375 409.324219 161.757812 409.707031 C 162.152344 410.722656 162.546875 411.746094 162.945312 412.765625 C 163.191406 413.691406 163.4375 414.621094 163.6875 415.546875 C 163.960938 416.574219 165.550781 416.148438 165.277344 415.125 C 165.046875 414.257812 164.816406 413.390625 164.585938 412.527344 C 164.578125 412.46875 164.5625 412.402344 164.535156 412.339844 C 164.367188 411.332031 164.195312 410.328125 164.027344 409.324219 C 163.949219 408.871094 163.875 408.417969 163.796875 407.964844 C 163.796875 407.941406 163.792969 407.917969 163.789062 407.886719 C 163.761719 407.632812 163.734375 407.382812 163.710938 407.128906 C 163.496094 405.101562 163.304688 403.09375 163.183594 401.0625 C 162.976562 397.617188 162.96875 394.214844 163.078125 390.773438 C 163.109375 390.277344 163.144531 389.785156 163.203125 389.289062 C 163.410156 387.523438 163.503906 386.957031 163.863281 385.222656 C 164.109375 384.015625 164.480469 382.847656 164.820312 381.664062 C 164.988281 381.085938 165.242188 380.515625 165.453125 379.949219 C 165.570312 379.632812 165.691406 379.316406 165.804688 379 C 165.890625 378.824219 165.972656 378.644531 166.058594 378.464844 C 168.472656 373.347656 171.269531 369.71875 175.457031 365.941406 C 175.671875 365.746094 175.886719 365.550781 176.105469 365.355469 C 175.796875 365.632812 176.414062 365.132812 176.5 365.066406 C 177.089844 364.632812 177.679688 364.199219 178.265625 363.761719 C 181.441406 361.78125 184.609375 359.84375 187.992188 358.230469 C 189.828125 357.355469 191.675781 356.523438 193.535156 355.703125 C 193.679688 355.640625 194.671875 355.21875 194.246094 355.382812 C 194.628906 355.234375 195.011719 355.085938 195.394531 354.941406 C 196.414062 354.546875 197.4375 354.152344 198.457031 353.757812 C 199.019531 353.660156 199.152344 353.15625 198.996094 352.738281 C 198.914062 352.308594 198.554688 351.964844 198.035156 352.164062 C 197.027344 352.332031 196.019531 352.503906 195.011719 352.671875 C 194.558594 352.75 194.101562 352.828125 193.648438 352.90625 C 193.433594 352.929688 193.214844 352.953125 192.996094 352.972656 C 190.984375 353.1875 188.984375 353.386719 186.964844 353.511719 C 183.160156 353.742188 179.367188 353.6875 175.558594 353.605469 C 174.894531 353.515625 174.230469 353.421875 173.566406 353.332031 C 172.648438 353.203125 172.933594 353.246094 172.023438 353.070312 C 170.601562 352.792969 169.269531 352.457031 167.878906 352.042969 C 167.429688 351.914062 166.996094 351.769531 166.558594 351.605469 C 166.140625 351.453125 165.722656 351.296875 165.304688 351.144531 C 165.292969 351.140625 165.269531 351.128906 165.238281 351.117188 C 186.601562 339.257812 208.339844 328.269531 230.742188 318.480469 C 253.707031 308.441406 277.152344 299.242188 301.058594 291.191406 C 324.304688 283.359375 347.71875 276.222656 371.421875 269.902344 C 394.78125 263.675781 418.425781 258.265625 442.199219 253.871094 C 466.957031 249.292969 491.449219 245.683594 516.394531 242.953125 C 541.335938 240.21875 566.480469 238.917969 591.570312 239.074219 C 616.089844 239.230469 640.472656 241.054688 664.574219 245.367188 C 676.523438 247.503906 688.273438 250.710938 699.707031 254.761719 C 711.082031 258.789062 722.492188 264.382812 731.785156 272.152344 C 740.773438 279.648438 748.410156 289.292969 750.625 301.054688 Z M 750.625 301.054688 " fill-opacity="1" fill-rule="nonzero"/></g></g></g></svg>