<svg xmlns="http://www.w3.org/2000/svg" xmlns:xlink="http://www.w3.org/1999/xlink" width="6912" zoomAndPan="magnify" viewBox="0 0 5184 2592.000001" height="3456" preserveAspectRatio="xMidYMid meet" version="1.0"><defs><clipPath id="id1"><path d="M 1034 464 L 4119 464 L 4119 2197 L 1034 2197 Z M 1034 464 " clip-rule="nonzero"/></clipPath><clipPath id="id2"><path d="M 1034.941406 464.644531 L 4090.566406 362.871094 L 4149.316406 2126.710938 L 1093.6875 2228.484375 Z M 1034.941406 464.644531 " clip-rule="nonzero"/></clipPath><clipPath id="id3"><path d="M 4090.320312 362.878906 L 1034.695312 464.652344 L 1093.441406 2228.492188 L 4149.070312 2126.71875 Z M 4090.320312 362.878906 " clip-rule="nonzero"/></clipPath><clipPath id="id4"><path d="M 4090.320312 362.878906 L 1034.695312 464.652344 L 1093.441406 2228.492188 L 4149.070312 2126.71875 Z M 4090.320312 362.878906 " clip-rule="nonzero"/></clipPath><clipPath id="id5"><path d="M 2680 1621 L 3086 1621 L 3086 2161 L 2680 2161 Z M 2680 1621 " clip-rule="nonzero"/></clipPath><clipPath id="id6"><path d="M 1034.941406 464.644531 L 4090.566406 362.871094 L 4149.316406 2126.710938 L 1093.6875 2228.484375 Z M 1034.941406 464.644531 " clip-rule="nonzero"/></clipPath><clipPath id="id7"><path d="M 4090.320312 362.878906 L 1034.695312 464.652344 L 1093.441406 2228.492188 L 4149.070312 2126.71875 Z M 4090.320312 362.878906 " clip-rule="nonzero"/></clipPath><clipPath id="id8"><path d="M 4090.320312 362.878906 L 1034.695312 464.652344 L 1093.441406 2228.492188 L 4149.070312 2126.71875 Z M 4090.320312 362.878906 " clip-rule="nonzero"/></clipPath></defs><g clip-path="url(#id1)"><g clip-path="url(#id2)"><g clip-path="url(#id3)"><g clip-path="url(#id4)"><path fill="#f2f2f2" d="M 4118.441406 1208.65625 L 1034.890625 464.625 L 2045.964844 2196.445312 L 2904.332031 1579.375 L 1039.507812 467.421875 L 3005.363281 1556.148438 L 3144.148438 2144.972656 L 3355.460938 1482.394531 L 1039.800781 467.265625 L 3396.105469 1436.351562 Z M 4118.441406 1208.65625 " fill-opacity="1" fill-rule="evenodd"/></g></g></g></g><g clip-path="url(#id5)"><g clip-path="url(#id6)"><g clip-path="url(#id7)"><g clip-path="url(#id8)"><path fill="#f2f2f2" d="M 3085.257812 2160.257812 L 2680.523438 1815.550781 L 2926.859375 1621.226562 Z M 3085.257812 2160.257812 " fill-opacity="1" fill-rule="evenodd"/></g></g></g></g></svg>