<svg xmlns="http://www.w3.org/2000/svg" xmlns:xlink="http://www.w3.org/1999/xlink" width="6912" zoomAndPan="magnify" viewBox="0 0 5184 2592.000001" height="3456" preserveAspectRatio="xMidYMid meet" version="1.0"><defs><clipPath id="id1"><path d="M 1063 362 L 4091 362 L 4091 2180 L 1063 2180 Z M 1063 362 " clip-rule="nonzero"/></clipPath><clipPath id="id2"><path d="M 1034.941406 464.644531 L 4090.566406 362.871094 L 4149.316406 2126.710938 L 1093.6875 2228.484375 Z M 1034.941406 464.644531 " clip-rule="nonzero"/></clipPath><clipPath id="id3"><path d="M 1034.941406 464.644531 L 4090.566406 362.871094 L 4149.316406 2126.710938 L 1093.6875 2228.484375 Z M 1034.941406 464.644531 " clip-rule="nonzero"/></clipPath><clipPath id="id4"><path d="M 1034.941406 464.644531 L 4090.566406 362.871094 L 4149.316406 2126.710938 L 1093.6875 2228.484375 Z M 1034.941406 464.644531 " clip-rule="nonzero"/></clipPath><clipPath id="id5"><path d="M 2157 1642 L 2539 1642 L 2539 2192 L 2157 2192 Z M 2157 1642 " clip-rule="nonzero"/></clipPath><clipPath id="id6"><path d="M 1034.941406 464.644531 L 4090.566406 362.871094 L 4149.316406 2126.710938 L 1093.6875 2228.484375 Z M 1034.941406 464.644531 " clip-rule="nonzero"/></clipPath><clipPath id="id7"><path d="M 1034.941406 464.644531 L 4090.566406 362.871094 L 4149.316406 2126.710938 L 1093.6875 2228.484375 Z M 1034.941406 464.644531 " clip-rule="nonzero"/></clipPath><clipPath id="id8"><path d="M 1034.941406 464.644531 L 4090.566406 362.871094 L 4149.316406 2126.710938 L 1093.6875 2228.484375 Z M 1034.941406 464.644531 " clip-rule="nonzero"/></clipPath></defs><g clip-path="url(#id1)"><g clip-path="url(#id2)"><g clip-path="url(#id3)"><g clip-path="url(#id4)"><path fill="#f2f2f2" d="M 1063.160156 1310.417969 L 4090.371094 362.855469 L 3196.773438 2158.117188 L 2299.246094 1599.527344 L 4085.949219 365.953125 L 2196.894531 1583.074219 L 2097.597656 2179.828125 L 1842.664062 1532.78125 L 4085.644531 365.816406 L 1799.046875 1489.542969 Z M 1063.160156 1310.417969 " fill-opacity="1" fill-rule="evenodd"/></g></g></g></g><g clip-path="url(#id5)"><g clip-path="url(#id6)"><g clip-path="url(#id7)"><g clip-path="url(#id8)"><path fill="#f2f2f2" d="M 2157.375 2191.160156 L 2538.273438 1820.285156 L 2279.554688 1642.789062 Z M 2157.375 2191.160156 " fill-opacity="1" fill-rule="evenodd"/></g></g></g></g></svg>